HIERARCHY
ROOT pelvis
{
  OFFSET 0 100 0
  CHANNELS 6 Xposition Yposition Zposition Zrotation Xrotation Yrotation
  JOINT pelvis_right_femur
  {
    OFFSET -10.78128 -3.44521 -0.5502486
    CHANNELS 3 Zrotation Xrotation Yrotation
    JOINT right_femur_tibia
    {
      OFFSET -0.8047443 -44.0398 -0.1307829
      CHANNELS 3 Zrotation Xrotation Yrotation
      JOINT right_tibia_foot
      {
        OFFSET 3.006224 -47.83518 -5
        CHANNELS 3 Zrotation Xrotation Yrotation
        End Site
        {
          OFFSET 0 -5 15
        }
      }
    }
  }
  JOINT pelvis_left_femur
  {
    OFFSET 10.78128 -3.44521 -0.5502486
    CHANNELS 3 Zrotation Xrotation Yrotation
    JOINT left_femur_tibia
    {
      OFFSET 0.8047443 -44.0398 -0.1307829
      CHANNELS 3 Zrotation Xrotation Yrotation
      JOINT left_tibia_foot
      {
        OFFSET -4.370144 -48.10324 -4.275266
        CHANNELS 3 Zrotation Xrotation Yrotation
        End Site
        {
          OFFSET 0 -5 15
        }
      }
    }
  }
  JOINT pelvis_spine1
  {
    OFFSET 0 6.468898 -3.129235
    CHANNELS 3 Zrotation Xrotation Yrotation
    JOINT spine1
    {
      OFFSET 0 23.15396 4.99043
      CHANNELS 3 Zrotation Xrotation Yrotation
      JOINT spine2
      {
        OFFSET 0 20.79997 -5.064912
        CHANNELS 3 Zrotation Xrotation Yrotation
        JOINT neck
        {
          OFFSET 0 14.38658 9.616178
          CHANNELS 3 Zrotation Xrotation Yrotation
          End Site
          {
            OFFSET 0 20 0
          }
        }
      }
      JOINT right_manubrium
      {
        OFFSET -5.722621 16.35077 3.967754
        CHANNELS 3 Zrotation Xrotation Yrotation
        JOINT right_clavicle
        {
          OFFSET -13.16364 1.694482 -4.693211
          CHANNELS 3 Zrotation Xrotation Yrotation
          JOINT right_humerus
          {
            OFFSET -28.5034 -0.3100689 -2.792744
            CHANNELS 3 Zrotation Xrotation Yrotation
            JOINT right_radius
            {
              OFFSET -25.15693 0.02248979 -1.271978
              CHANNELS 3 Zrotation Xrotation Yrotation
              End Site
              {
                OFFSET -15 0 0
              }
            }
          }
        }
      }
      JOINT left_manubrium
      {
        OFFSET 5.722621 16.35077 3.967754
        CHANNELS 3 Zrotation Xrotation Yrotation
        JOINT left_clavicle
        {
          OFFSET 13.16364 1.694482 -4.693211
          CHANNELS 3 Zrotation Xrotation Yrotation
          JOINT left_humerus
          {
            OFFSET 29.39168 -1.063119 -2.237045
            CHANNELS 3 Zrotation Xrotation Yrotation
            JOINT left_radius
            {
              OFFSET 24.59957 -0.9528479 0.9047498
              CHANNELS 3 Zrotation Xrotation Yrotation
              End Site
              {
                OFFSET 15 -0 -0
              }
            }
          }
        }
      }
    }
  }
}
MOTION
Frames: 17
Frame Time: 0.0416666666667
0 103.5113 0 1.871596 -1.667661 -0.03431376 2.154136 -10.2742 8.55118 -0 33.76133 -0 -6.940149 -18.46541 -2.903554 -7.391142 10.37245 -23.75423 -0 4.959403 -0 9.704703 -14.24611 26.74649 -2.868638 -2.17095 4.51391 2.951444 9.943823 -7.547548 1.296714 21.54924 7.127285 3.328317 -25.3526 9.796568 5.765211 -18.75061 11.53907 86.37201 36.70634 -18.90186 -0 0 13.3843 -7.622263 8.212258 4.516336 6.120453 -20.75637 -1.750384 -91.40397 21.16839 19.31357 0 0 -16.22431 14.52603 13.58246 -3.043004
0.2538785 103.8112 1.38027 1.369641 -0.7814359 -0.0204493 2.937005 -15.54772 8.518575 -0 37.14534 -0 -6.623509 -15.37262 -2.97364 -7.393383 11.6502 -23.88994 -0 4.68947 -0 8.409681 -16.83513 26.61088 -2.8438 -2.018642 4.342119 3.098061 9.928462 -7.630671 1.332014 21.49231 7.164049 3.272888 -25.54157 9.938787 5.761965 -18.60539 11.56814 86.57365 36.95702 -19.14357 -0 0 12.94626 -7.228341 8.213758 4.487301 6.021891 -20.6905 -1.876799 -90.87761 21.19974 18.69876 0 0 -17.28514 14.6705 13.15115 -3.1783
0.6013071 103.5235 3.649113 0.7343493 -1.554601 0.2281486 2.733491 -20.64416 6.285384 -0 34.49483 -0 -5.096706 -11.46351 -3.63138 -6.558773 11.58234 -20.16772 -0 3.489313 -0 5.797204 -18.97799 23.35597 -2.620777 -2.121347 4.484194 2.970826 10.00327 -7.579586 1.345659 21.45093 6.972516 3.209347 -25.45047 9.73957 5.796112 -18.59894 11.54003 86.52947 36.5438 -19.29554 -0 0 13.15295 -7.426989 8.28146 4.596452 6.063891 -20.73284 -1.781152 -91.31359 21.70198 19.28178 0 0 -16.87191 13.99612 13.4282 -2.225753
0.8851013 103.1576 5.888006 0.1679804 -0.2317613 0.356446 3.998343 -26.06511 6.702733 -0 30.80564 -0 -4.660661 -11.8226 -3.668581 -6.292773 13.07804 -20.34965 -0 3.83177 -0 5.877484 -20.50545 22.99131 -2.456217 -1.942441 4.271378 3.16646 10.00666 -7.70649 1.408534 21.32802 6.939099 3.074756 -25.73296 9.884135 5.799035 -18.36561 11.57103 86.86552 36.70141 -19.82263 -0 0 12.53583 -6.84452 8.320929 4.585023 5.922405 -20.65588 -1.940756 -90.70571 22.03402 18.62163 0 0 -18.41111 13.86498 12.88895 -1.903015
1.136013 102.5889 8.384275 0.02665953 0.4810626 0.4393525 4.49734 -29.19341 6.056278 -0 25.56814 -0 -4.755697 -10.45739 -3.074604 -6.309064 13.86073 -19.71814 -0 4.723556 -0 6.092418 -21.33825 22.4831 -2.259868 -1.792979 4.071513 3.362991 10.00437 -7.839987 1.461571 21.18801 6.904289 2.925163 -26.02155 10.02359 5.774927 -18.15161 11.59652 87.24613 36.80874 -20.4176 -0 0 11.92684 -6.288484 8.381816 4.596303 5.792001 -20.59851 -2.094506 -90.13816 22.41295 18.05854 0 0 -20.00045 13.64835 12.34893 -1.433362
1.379958 101.8968 11.25034 0.1016446 0.7808894 0.5122131 4.598007 -30.72616 4.834872 -0 20.99538 -0 -5.320491 -7.925904 -2.127524 -6.519711 14.11576 -18.77473 -0 5.937849 -0 6.376147 -21.80121 22.02776 -2.062468 -1.657131 3.909312 3.505286 10.01669 -7.940724 1.467964 21.0581 6.884138 2.818687 -26.22769 10.07233 5.727669 -17.97395 11.63451 87.60801 36.85434 -20.95096 -0 0 11.39941 -5.99608 8.430475 4.713619 5.678089 -20.57395 -2.252831 -89.63635 22.68415 17.62786 0 0 -21.32189 13.35584 11.78004 -0.9203417
1.608563 101.0492 14.69188 0.3231307 0.2179118 0.6660053 4.037203 -30.77224 2.989905 -0 17.46542 -0 -5.795877 -5.06064 -1.711514 -6.566797 14.39381 -16.99995 -0 7.363528 -0 5.615534 -21.93166 20.72228 -1.86715 -1.525812 3.790777 3.58075 10.05794 -8.006124 1.42329 20.9422 6.869932 2.767463 -26.33066 9.99908 5.672544 -17.82521 11.69119 87.93136 36.82244 -21.40687 -0 0 10.96663 -6.014765 8.461297 4.94879 5.577777 -20.58654 -2.417982 -89.20692 22.83702 17.3226 0 0 -22.29521 12.9618 11.18131 -0.3584133
1.791326 100.0981 18.798 0.4886587 -0.7010372 0.9371543 3.330711 -30.29687 1.333454 -0 15.02905 -0 -5.848406 -2.97969 -2.111306 -6.326976 15.01893 -14.93879 -0 9.182259 -0 3.769814 -21.80322 18.69743 -1.69019 -1.394529 3.7003 3.611836 10.12349 -8.052163 1.339891 20.83688 6.870778 2.761725 -26.3581 9.844124 5.612392 -17.70145 11.76477 88.22942 36.75432 -21.79989 -0 0 10.59636 -6.271589 8.487988 5.26636 5.487357 -20.63059 -2.592313 -88.80171 22.86505 17.06955 0 0 -23.03463 12.52905 10.54359 0.1844063
1.908243 99.13651 23.58096 0.5636684 -1.648171 1.306289 2.786508 -29.61624 0.1258936 -0 13.38416 -0 -5.611897 -1.65823 -2.975383 -5.927625 15.87143 -12.93903 -0 11.64603 -0 1.480301 -21.28893 16.43928 -1.531368 -1.259532 3.616059 3.626903 10.20864 -8.099511 1.227837 20.7272 6.898964 2.784131 -26.34969 9.654039 5.537991 -17.59604 11.85434 88.55082 36.68869 -22.18842 -0 0 10.22793 -6.690176 8.534749 5.644132 5.403354 -20.70605 -2.786884 -88.34819 22.77341 16.78969 0 0 -23.74857 12.10078 9.821625 0.6819645
1.954136 98.27629 29.0115 0.5500321 -2.445492 1.72798 2.558794 -28.80194 -0.6306573 -0 12.24376 -0 -5.334283 -0.7892145 -3.914961 -5.485077 16.72686 -11.16817 -0 14.94548 -0 -0.7139319 -20.3327 14.32343 -1.391735 -1.126387 3.536132 3.629738 10.31678 -8.154686 1.09118 20.60648 6.958901 2.830391 -26.31205 9.444093 5.445687 -17.51249 11.95843 88.91462 36.63197 -22.59448 -0 0 9.850903 -7.261096 8.618508 6.072998 5.33239 -20.821 -3.003308 -87.82884 22.55636 16.46353 0 0 -24.50105 11.69375 9.009777 1.1226
1.930004 97.63213 35.03199 0.439776 -3.05683 2.140844 2.714383 -27.7406 -0.954629 -0 11.53211 -0 -5.182912 -0.246877 -4.738435 -5.025059 17.36719 -9.687123 -0 19.29795 -0 -2.548545 -18.86196 12.5387 -1.276482 -1.002757 3.475069 3.602235 10.456 -8.207919 0.934868 20.48244 7.040198 2.906689 -26.2184 9.201057 5.345585 -17.4564 12.07313 89.28957 36.56086 -22.98231 -0 0 9.505425 -8.013479 8.740135 6.546346 5.284133 -20.97913 -3.232086 -87.28407 22.21253 16.11986 0 0 -25.19455 11.30209 8.159998 1.502478
1.839546 97.32993 41.54114 0.2080698 -3.478205 2.46049 3.313609 -26.2139 -0.8055234 -0 11.3259 -0 -5.294508 -0.04421144 -5.316002 -4.528863 17.45702 -8.579436 -0 24.99554 -0 -3.859375 -16.7948 11.26207 -1.196938 -0.8918405 3.451443 3.51975 10.62641 -8.235229 0.7751774 20.38142 7.116803 3.019052 -26.02819 8.908752 5.264073 -17.42631 12.18794 89.58647 36.44257 -23.25064 -0 0 9.264063 -8.941648 8.876033 7.037797 5.261958 -21.16001 -3.451199 -86.80204 21.76831 15.81343 0 0 -25.61015 10.92532 7.394386 1.803784
1.694694 97.49063 48.36045 -0.1424034 -3.761114 2.579173 4.345618 -23.85772 -0.1872692 -0 11.68853 -0 -5.809502 -0.2308717 -5.487159 -3.986069 16.41461 -7.933927 -0 32.21942 -0 -4.490206 -14.12307 10.72651 -1.168293 -0.7854156 3.479976 3.358205 10.81247 -8.196385 0.6387641 20.34949 7.151524 3.169955 -25.69809 8.556748 5.238695 -17.40943 12.28687 89.66209 36.25115 -23.23043 -0 0 9.214388 -9.986564 8.972411 7.507453 5.255435 -21.30785 -3.62962 -86.50304 21.27941 15.61582 0 0 -25.4372 10.57818 6.885679 1.988305
1.525216 98.17206 55.21966 -0.5137427 -4.097695 2.392286 5.574487 -20.21663 0.7099926 -0 12.46072 -0 -6.741121 -0.8523461 -5.146748 -3.435828 13.48038 -7.699385 -0 40.65832 -0 -4.446607 -11.07942 11.08979 -1.207357 -0.6698818 3.575016 3.093459 10.97848 -8.030594 0.5554002 20.44779 7.107019 3.358228 -25.19097 8.145764 5.301182 -17.39241 12.35004 89.34127 35.98115 -22.69503 -0 0 9.453503 -11.05981 8.953038 7.920666 5.244725 -21.33685 -3.726898 -86.53324 20.81822 15.63253 0 0 -24.31097 10.2941 6.827039 2.001533
1.377019 99.28792 61.81542 -0.6841139 -4.82139 1.865227 6.482133 -15.10573 1.505667 -0 13.13061 -0 -7.734683 -1.942025 -4.454214 -2.9663 8.261812 -7.54938 -0 49.06281 -0 -4.092828 -8.282296 12.18948 -1.323628 -0.5508621 3.76036 2.700706 11.07558 -7.667585 0.5400184 20.72242 6.971924 3.578611 -24.4926 7.694834 5.436348 -17.39113 12.35901 88.50838 35.65453 -21.44723 -0 0 10.06532 -12.12996 8.767136 8.288569 5.223715 -21.17839 -3.700983 -87.02072 20.43064 16.00884 0 0 -21.98872 10.11158 7.339934 1.809115
1.279993 100.6088 67.95968 -0.4850948 -6.033401 1.097114 6.651252 -9.224317 1.971602 -0 13.14818 -0 -8.159051 -3.492514 -3.837119 -2.595102 1.628652 -7.121454 -0 55.40321 -0 -3.938193 -6.484517 13.48053 -1.502315 -0.4754358 4.065811 2.168739 11.0639 -7.072735 0.5743364 21.15517 6.783878 3.814804 -23.63046 7.244216 5.549357 -17.47263 12.3046 87.23312 35.30696 -19.47894 -0 0 11.07089 -13.29919 8.459832 8.698463 5.220983 -20.84706 -3.532032 -87.97769 20.09023 16.87356 0 0 -18.63544 10.0343 8.349217 1.464878
1.222578 101.8865 73.68092 -0.06864491 -7.203038 0.2499628 6.261411 -3.922714 2.240912 -0 12.52813 -0 -7.855496 -5.391608 -3.49882 -2.194614 -4.584284 -6.49696 -0 57.866 -0 -3.990522 -5.831719 14.49903 -1.700423 -0.5049347 4.494168 1.529893 10.92896 -6.295935 0.6163191 21.65676 6.608561 4.030805 -22.67711 6.846377 5.516093 -17.71998 12.18917 85.75491 34.97131 -17.02311 -0 0 12.40163 -14.69804 8.159809 9.261043 5.273693 -20.42534 -3.240264 -89.24634 19.72551 18.23868 0 0 -14.85291 10.01863 9.592676 1.108288
